<?xml version="1.0" standalone="no"?>
<!DOCTYPE svg PUBLIC "-//W3C//DTD SVG 1.1//EN" "http://www.w3.org/Graphics/SVG/1.1/DTD/svg11.dtd" >
<svg>
<metadata>
Created by FontForge 20090622 at Mon Jun 24 04:48:12 2013
 By ffonts
Calculator &#194;&#169; Micah Jablonski. 2009. All Rights Reserved
</metadata>
<defs>
<font id="Calculator" horiz-adv-x="200" >
  <font-face 
    font-family="Calculator"
    font-weight="400"
    font-stretch="normal"
    units-per-em="2048"
    panose-1="2 0 5 0 0 0 0 0 0 0"
    ascent="1638"
    descent="-410"
    x-height="520"
    cap-height="1311"
    bbox="-30 -490 2160 1840"
    underline-thickness="150"
    underline-position="-142"
    unicode-range="U+0020-U+F002"
  />
<missing-glyph horiz-adv-x="1036" 
d="M100 -8v1450h836v-1450h-836zM162 58h712v1318h-712v-1318zM325 1152q34 31 62 46q54 31 114 31q94 0 152 -49.5t58 -133.5q0 -51 -23.5 -102t-88.5 -132q-63 -80 -98 -130.5t-35 -94.5q0 -37 26 -141h-44q-37 103 -37 156q0 79 81.5 221t81.5 214q0 53 -31 84t-87 31
q-37 0 -67 -16q-25 -15 -64 -47v63zM391 340l58 58q12 12 23 12q12 0 26 -13l56 -60q11 -14 11 -26q0 -15 -12 -28l-56 -62q-16 -16 -25 -16q-13 0 -24 12l-61 71q-9 12 -9 24q0 14 13 28z" />
    <glyph glyph-name=".notdef" horiz-adv-x="1036" 
d="M100 -8v1450h836v-1450h-836zM162 58h712v1318h-712v-1318zM325 1152q34 31 62 46q54 31 114 31q94 0 152 -49.5t58 -133.5q0 -51 -23.5 -102t-88.5 -132q-63 -80 -98 -130.5t-35 -94.5q0 -37 26 -141h-44q-37 103 -37 156q0 79 81.5 221t81.5 214q0 53 -31 84t-87 31
q-37 0 -67 -16q-25 -15 -64 -47v63zM391 340l58 58q12 12 23 12q12 0 26 -13l56 -60q11 -14 11 -26q0 -15 -12 -28l-56 -62q-16 -16 -25 -16q-13 0 -24 12l-61 71q-9 12 -9 24q0 14 13 28z" />
    <glyph glyph-name=".null" 
 />
    <glyph glyph-name="nonmarkingreturn" 
 />
    <glyph glyph-name="space" unicode=" " horiz-adv-x="600" 
 />
    <glyph glyph-name="space" unicode="&#xa0;" horiz-adv-x="600" 
 />
    <glyph glyph-name="exclam" unicode="!" horiz-adv-x="292" 
d="M192 684v-488l-46 -46l-46 46v488l46 46zM192 1284v-488l-46 -46l-46 46v488l46 46zM192 88v-96h-92v96h92z" />
    <glyph glyph-name="quotedbl" unicode="&#x22;" horiz-adv-x="492" 
d="M192 1794v-288l-46 -46l-46 46v288l46 46zM392 1794v-288l-46 -46l-46 46v288l46 46z" />
    <glyph glyph-name="numbersign" unicode="#" horiz-adv-x="1380" 
d="M536 784v-288l-46 -46l-46 46v288l46 46zM832 888l48 -48l-48 -48h-284l-48 48l48 48h284zM536 384v-288l-46 -46l-46 46v288l46 46zM536 1184v-288l-46 -46l-46 46v288l46 46zM936 784v-288l-46 -46l-46 46v288l46 46zM936 384v-288l-46 -46l-46 46v288l46 46zM936 1184
v-288l-46 -46l-46 46v288l46 46zM832 488l48 -48l-48 -48h-284l-48 48l48 48h284zM1232 888l48 -48l-48 -48h-284l-48 48l48 48h284zM432 888l48 -48l-48 -48h-284l-48 48l48 48h284zM1232 488l48 -48l-48 -48h-284l-48 48l48 48h284zM432 488l48 -48l-48 -48h-284l-48 48
l48 48h284z" />
    <glyph glyph-name="dollar" unicode="$" horiz-adv-x="898" 
d="M694 1288l48 -48l-48 -48h-484l-48 48l48 48h484zM694 88l48 -48l-48 -48h-484l-48 48l48 48h484zM693 688l48 -48l-48 -48h-484l-48 48l48 48h484zM197 1184v-488l-46 -46l-46 46v488l46 46zM797 584v-488l-46 -46l-46 46v488l46 46zM498 1084v-288l-46 -46l-46 46v288
l46 46zM498 484v-288l-46 -46l-46 46v288l46 46zM496 1434v-88l-46 -46l-46 46v88l46 46zM496 -66v-88l-46 -46l-46 46v88l46 46zM192 174v-68l-46 -46l-46 46v68l46 46zM798 1184v-68l-46 -46l-46 46v68l46 46z" />
    <glyph glyph-name="percent" unicode="%" horiz-adv-x="1592" 
d="M1120 1479l12 -60l-169 -406l-62 -12l-11 66l168 400zM910 969l12 -60l-169 -406l-62 -12l-11 66l168 400zM700 459l12 -60l-169 -406l-62 -12l-11 66l168 400zM1391 198l48 -48l-48 -48h-284l-48 48l48 48h284zM1092 494v-288l-46 -46l-46 46v288l46 46zM1391 598
l48 -48l-48 -48h-284l-48 48l48 48h284zM1492 494v-288l-46 -46l-46 46v288l46 46zM491 898l48 -48l-48 -48h-284l-48 48l48 48h284zM192 1194v-288l-46 -46l-46 46v288l46 46zM491 1298l48 -48l-48 -48h-284l-48 48l48 48h284zM592 1194v-288l-46 -46l-46 46v288l46 46z
" />
    <glyph glyph-name="ampersand" unicode="&#x26;" horiz-adv-x="1870" 
d="M668 808l424 -418v-78h-68l-424 424v72h68zM603 1498v-72l-224 -221h-68v79l224 214h68zM382 1198v-86h-82v86h82zM695 1498v-86h-82v86h82zM774 1498l224 -218v-78h-68l-224 224v72h68zM1693 308v-72l-224 -221h-68v79l224 214h68zM983 1198v-86h-82v86h82zM983 1106
v-72l-224 -221h-68v79l224 214h68zM368 1108l224 -218v-78h-68l-224 224v72h68zM682 898v-86h-82v86h82zM1168 308l224 -218v-78h-68l-224 224v72h68zM592 808v-72l-424 -421h-68v79l424 414h68zM1092 308v-72l-424 -421h-68v79l424 414h68zM1592 808v-72l-424 -421h-68v79
l424 414h68zM1458 851l48 -48l-48 -48h-284l-48 48l48 48h284zM1742 731l48 -48l-48 -48h-134l-48 48l48 48h134zM219 264v-148l-46 -46l-46 46v148l46 46zM548 -62l48 -48l-48 -48h-134l-48 48l48 48h134zM280 60l-50 -50l-50 50l50 50zM400 -60l-50 -50l-50 50l50 50z
M340 0l-50 -50l-50 50l50 50z" />
    <glyph glyph-name="quotesingle" unicode="'" horiz-adv-x="292" 
d="M192 1564v-488l-46 -46l-46 46v488l46 46z" />
    <glyph glyph-name="parenleft" unicode="(" horiz-adv-x="473" 
d="M339 1800l24 -70l-160 -396l-60 -34l-24 76l160 390zM210 106l162 -389l-12 -78l-68 35l-162 395l12 72zM192 1254v-488l-46 -46l-46 46v488l46 46zM192 673v-488l-46 -46l-46 46v488l46 46z" />
    <glyph glyph-name="parenright" unicode=")" horiz-adv-x="468" 
d="M193 1746l156 -390l-23 -77l-60 35l-156 396l24 70zM327 121l12 -72l-159 -395l-68 -35l-12 78l159 389zM323 1280l45 -46v-488l-45 -46l-45 46v488zM323 699l45 -46v-488l-45 -46l-46 46v488z" />
    <glyph glyph-name="asterisk" unicode="*" horiz-adv-x="684" 
d="M386 1504v-148l-46 -46l-46 46v148l46 46zM282 1345l48 -48l-48 -48h-134l-48 48l48 48h134zM536 1345l48 -48l-48 -48h-134l-48 48l48 48h134zM326 1242v-72l-124 -121h-68v79l124 114h68zM422 1238l124 -118v-78h-68l-124 124v72h68z" />
    <glyph glyph-name="plus" unicode="+" horiz-adv-x="1002" 
d="M854 768l48 -48l-48 -48h-284l-48 48l48 48h284zM548 638v-288l-46 -46l-46 46v288l46 46zM548 1084v-288l-46 -46l-46 46v288l46 46zM432 768l48 -48l-48 -48h-284l-48 48l48 48h284z" />
    <glyph glyph-name="comma" unicode="," horiz-adv-x="292" 
d="M192 124v-288l-46 -46l-46 46v288l46 46z" />
    <glyph glyph-name="hyphen" unicode="-" horiz-adv-x="580" 
d="M432 538l48 -48l-48 -48h-284l-48 48l48 48h284z" />
    <glyph glyph-name="hyphen" unicode="&#xad;" horiz-adv-x="580" 
d="M432 538l48 -48l-48 -48h-284l-48 48l48 48h284z" />
    <glyph glyph-name="period" unicode="." horiz-adv-x="292" 
d="M192 148v-96h-92v96h92z" />
    <glyph glyph-name="slash" unicode="/" horiz-adv-x="893" 
d="M760 1380l23 -70l-159 -396l-61 -34l-23 76l159 390zM550 880l23 -70l-159 -396l-61 -34l-23 76l159 390zM350 370l23 -70l-159 -396l-61 -34l-23 76l159 390z" />
    <glyph glyph-name="zero" unicode="0" horiz-adv-x="892" 
d="M686 1278l48 -48l-48 -48h-484l-48 48l48 48h484zM792 1174v-488l-46 -46l-46 46v488l46 46zM192 574v-488l-46 -46l-46 46v488l46 46zM192 1174v-488l-46 -46l-46 46v488l46 46zM792 574v-488l-46 -46l-46 46v488l46 46zM689 78l48 -48l-48 -48h-484l-48 48l48 48h484z
M439 600l24 -70l-159 -396l-61 -34l-24 76l160 390zM649 1150l24 -70l-159 -396l-61 -34l-24 76l160 390z" />
    <glyph glyph-name="one" unicode="1" horiz-adv-x="688" 
d="M399 1184v-488l-46 -46l-46 46v488l46 46zM399 584v-488l-46 -46l-46 46v488l46 46zM292 1225v-72l-124 -121h-68v79l124 114h68zM540 88l48 -48l-48 -48h-134l-48 48l48 48h134zM295 88l48 -48l-48 -48h-134l-48 48l48 48h134z" />
    <glyph glyph-name="two" unicode="2" horiz-adv-x="893" 
d="M686 1288l48 -48l-48 -48h-484l-48 48l48 48h484zM793 1184v-488l-46 -46l-46 46v488l46 46zM193 584v-488l-46 -46l-46 46v488l46 46zM689 88l48 -48l-48 -48h-484l-48 48l48 48h484zM688 692l48 -48l-48 -48h-484l-48 48l48 48h484zM192 1187v-88l-46 -46l-46 46v88
l46 46z" />
    <glyph glyph-name="three" unicode="3" horiz-adv-x="846" 
d="M639 1288l48 -48l-48 -48h-484l-48 48l48 48h484zM746 1184v-488l-46 -46l-46 46v488l46 46zM746 584v-488l-46 -46l-46 46v488l46 46zM642 88l48 -48l-48 -48h-484l-48 48l48 48h484zM632 684l48 -48l-48 -48h-484l-48 48l48 48h484z" />
    <glyph glyph-name="four" unicode="4" horiz-adv-x="892" 
d="M792 1184v-488l-46 -46l-46 46v488l46 46zM192 1184v-488l-46 -46l-46 46v488l46 46zM792 584v-488l-46 -46l-46 46v488l46 46zM689 688l48 -48l-48 -48h-484l-48 48l48 48h484z" />
    <glyph glyph-name="five" unicode="5" horiz-adv-x="892" 
d="M686 1288l48 -48l-48 -48h-484l-48 48l48 48h484zM192 1184v-488l-46 -46l-46 46v488l46 46zM792 584v-488l-46 -46l-46 46v488l46 46zM689 88l48 -48l-48 -48h-484l-48 48l48 48h484zM689 692l48 -48l-48 -48h-484l-48 48l48 48h484zM193 184v-88l-46 -46l-46 46v88
l46 46z" />
    <glyph glyph-name="six" unicode="6" horiz-adv-x="892" 
d="M686 1288l48 -48l-48 -48h-484l-48 48l48 48h484zM192 584v-488l-46 -46l-46 46v488l46 46zM192 1184v-488l-46 -46l-46 46v488l46 46zM792 584v-488l-46 -46l-46 46v488l46 46zM689 88l48 -48l-48 -48h-484l-48 48l48 48h484zM689 688l48 -48l-48 -48h-484l-48 48l48 48
h484z" />
    <glyph glyph-name="seven" unicode="7" horiz-adv-x="839" 
d="M632 1288l48 -48l-48 -48h-484l-48 48l48 48h484zM739 1184v-488l-46 -46l-46 46v488l46 46zM739 584v-488l-46 -46l-46 46v488l46 46z" />
    <glyph glyph-name="eight" unicode="8" horiz-adv-x="892" 
d="M686 1288l48 -48l-48 -48h-484l-48 48l48 48h484zM792 1184v-488l-46 -46l-46 46v488l46 46zM192 584v-488l-46 -46l-46 46v488l46 46zM192 1184v-488l-46 -46l-46 46v488l46 46zM792 584v-488l-46 -46l-46 46v488l46 46zM689 88l48 -48l-48 -48h-484l-48 48l48 48h484z
M689 682l48 -48l-48 -48h-484l-48 48l48 48h484z" />
    <glyph glyph-name="nine" unicode="9" horiz-adv-x="892" 
d="M686 1288l48 -48l-48 -48h-484l-48 48l48 48h484zM792 1184v-488l-46 -46l-46 46v488l46 46zM192 1184v-488l-46 -46l-46 46v488l46 46zM792 584v-488l-46 -46l-46 46v488l46 46zM689 88l48 -48l-48 -48h-484l-48 48l48 48h484zM689 691l48 -48l-48 -48h-484l-48 48
l48 48h484z" />
    <glyph glyph-name="colon" unicode=":" horiz-adv-x="292" 
d="M192 1008v-96h-92v96h92zM192 288v-96h-92v96h92z" />
    <glyph glyph-name="semicolon" unicode=";" horiz-adv-x="302" 
d="M192 249v-288l-46 -46l-46 46v288l46 46zM202 998v-96h-92v96h92z" />
    <glyph glyph-name="semicolon" unicode="&#x37e;" horiz-adv-x="302" 
d="M192 249v-288l-46 -46l-46 46v288l46 46zM202 998v-96h-92v96h92z" />
    <glyph glyph-name="less" unicode="&#x3c;" horiz-adv-x="692" 
d="M168 688l424 -418v-78h-68l-424 424v72h68zM592 1208v-72l-424 -421h-68v79l424 414h68z" />
    <glyph glyph-name="equal" unicode="=" horiz-adv-x="780" 
d="M632 888l48 -48l-48 -48h-484l-48 48l48 48h484zM632 608l48 -48l-48 -48h-484l-48 48l48 48h484z" />
    <glyph glyph-name="greater" unicode="&#x3e;" horiz-adv-x="692" 
d="M168 1208l424 -418v-78h-68l-424 424v72h68zM592 685v-72l-424 -421h-68v79l424 414h68z" />
    <glyph glyph-name="question" unicode="?" horiz-adv-x="839" 
d="M632 1348l48 -48l-48 -48h-484l-48 48l48 48h484zM739 1244v-488l-46 -46l-46 46v488l46 46zM626 735l48 -48l-48 -48h-134l-48 48l48 48h134zM460 148v-96h-92v96h92zM460 634v-288l-46 -46l-46 46v288l46 46z" />
    <glyph glyph-name="at" unicode="@" horiz-adv-x="1498" 
d="M688 1150l48 -48l-48 -48h-484l-48 48l48 48h484zM1288 -50l48 -48l-48 -48h-484l-48 48l48 48h484zM688 -50l48 -48l-48 -48h-484l-48 48l48 48h484zM192 1046v-488l-46 -46l-46 46v488l46 46zM192 446v-488l-46 -46l-46 46v488l46 46zM1392 1036v-488l-46 -46l-46 46
v488l46 46zM1288 1150l48 -48l-48 -48h-484l-48 48l48 48h484zM1280 301l48 -48l-48 -48h-284l-48 48l48 48h284zM588 600v-288l-46 -46l-46 46v288l46 46zM988 600v-288l-46 -46l-46 46v288l46 46zM886 307l48 -48l-48 -48h-284l-48 48l48 48h284zM886 714l48 -48l-48 -48
h-284l-48 48l48 48h284zM1388 454v-148l-46 -46l-46 46v148l46 46zM994 784v-68l-46 -46l-46 46v68l46 46z" />
    <glyph glyph-name="A" unicode="A" horiz-adv-x="892" 
d="M686 1288l48 -48l-48 -48h-484l-48 48l48 48h484zM792 1184v-488l-46 -46l-46 46v488l46 46zM192 584v-488l-46 -46l-46 46v488l46 46zM192 1184v-488l-46 -46l-46 46v488l46 46zM792 584v-488l-46 -46l-46 46v488l46 46zM689 683l48 -48l-48 -48h-484l-48 48l48 48h484z
" />
    <glyph glyph-name="B" unicode="B" horiz-adv-x="873" 
d="M192 584v-488l-46 -46l-46 46v488l46 46zM192 1184v-488l-46 -46l-46 46v488l46 46zM489 682l48 -48l-48 -48h-284l-48 48l48 48h284zM609 628l124 -118v-78h-68l-124 124v72h68zM733 838v-72l-124 -121h-68v79l124 114h68zM489 1288l48 -48l-48 -48h-284l-48 48l48 48
h284zM489 88l48 -48l-48 -48h-284l-48 48l48 48h284zM733 235v-72l-124 -121h-68v79l124 114h68zM609 1238l124 -118v-78h-68l-124 124v72h68zM783 384v-88l-46 -46l-46 46v88l46 46zM783 984v-88l-46 -46l-46 46v88l46 46z" />
    <glyph glyph-name="C" unicode="C" horiz-adv-x="893" 
d="M686 1288l48 -48l-48 -48h-484l-48 48l48 48h484zM192 584v-488l-46 -46l-46 46v488l46 46zM192 1184v-488l-46 -46l-46 46v488l46 46zM689 88l48 -48l-48 -48h-484l-48 48l48 48h484zM793 1174v-148l-46 -46l-46 46v148l46 46zM793 254v-148l-46 -46l-46 46v148l46 46z
" />
    <glyph glyph-name="D" unicode="D" horiz-adv-x="973" 
d="M192 584v-488l-46 -46l-46 46v488l46 46zM192 1184v-488l-46 -46l-46 46v488l46 46zM489 1288l48 -48l-48 -48h-284l-48 48l48 48h284zM489 88l48 -48l-48 -48h-284l-48 48l48 48h284zM873 884v-488l-46 -46l-46 46v488l46 46zM609 1248l224 -218v-78h-68l-224 224v72h68
zM839 318v-72l-224 -221h-68v79l224 214h68z" />
    <glyph glyph-name="E" unicode="E" horiz-adv-x="846" 
d="M688 1308l48 -48l-48 -48h-484l-48 48l48 48h484zM688 88l48 -48l-48 -48h-484l-48 48l48 48h484zM698 687l48 -48l-48 -48h-484l-48 48l48 48h484zM192 594v-488l-46 -46l-46 46v488l46 46zM192 1194v-488l-46 -46l-46 46v488l46 46z" />
    <glyph glyph-name="F" unicode="F" horiz-adv-x="846" 
d="M688 1283l48 -48l-48 -48h-484l-48 48l48 48h484zM698 673l48 -48l-48 -48h-484l-48 48l48 48h484zM192 569v-488l-46 -46l-46 46v488l46 46zM192 1169v-488l-46 -46l-46 46v488l46 46z" />
    <glyph glyph-name="G" unicode="G" horiz-adv-x="1077" 
d="M686 1288l48 -48l-48 -48h-484l-48 48l48 48h484zM192 584v-488l-46 -46l-46 46v488l46 46zM192 1184v-488l-46 -46l-46 46v488l46 46zM792 584v-488l-46 -46l-46 46v488l46 46zM689 88l48 -48l-48 -48h-484l-48 48l48 48h484zM689 689l48 -48l-48 -48h-134l-48 48l48 48
h134zM929 693l48 -48l-48 -48h-134l-48 48l48 48h134zM783 1184v-148l-46 -46l-46 46v148l46 46z" />
    <glyph glyph-name="H" unicode="H" horiz-adv-x="892" 
d="M792 1184v-488l-46 -46l-46 46v488l46 46zM192 584v-488l-46 -46l-46 46v488l46 46zM192 1184v-488l-46 -46l-46 46v488l46 46zM792 584v-488l-46 -46l-46 46v488l46 46zM689 693l48 -48l-48 -48h-484l-48 48l48 48h484z" />
    <glyph glyph-name="I" unicode="I" horiz-adv-x="723" 
d="M408 604v-488l-46 -46l-46 46v488l46 46zM405 1204v-488l-46 -46l-46 46v488l46 46zM283 88l48 -48l-48 -48h-134l-48 48l48 48h134zM575 88l48 -48l-48 -48h-134l-48 48l48 48h134zM282 1311l48 -48l-48 -48h-134l-48 48l48 48h134zM575 1308l48 -48l-48 -48h-134
l-48 48l48 48h134z" />
    <glyph glyph-name="J" unicode="J" horiz-adv-x="1076" 
d="M611 1194v-488l-46 -46l-46 46v488l46 46zM611 594v-488l-46 -46l-46 46v488l46 46zM928 1318l48 -48l-48 -48h-284l-48 48l48 48h284zM488 1308l48 -48l-48 -48h-284l-48 48l48 48h284zM192 384v-288l-46 -46l-46 46v288l46 46zM488 88l48 -48l-48 -48h-284l-48 48
l48 48h284z" />
    <glyph glyph-name="K" unicode="K" horiz-adv-x="853" 
d="M192 584v-488l-46 -46l-46 46v488l46 46zM192 1184v-488l-46 -46l-46 46v488l46 46zM753 1168v-72l-424 -421h-68v79l424 414h68zM329 608l424 -418v-78h-68l-424 424v72h68z" />
    <glyph glyph-name="L" unicode="L" horiz-adv-x="836" 
d="M688 88l48 -48l-48 -48h-484l-48 48l48 48h484zM192 594v-488l-46 -46l-46 46v488l46 46zM192 1194v-488l-46 -46l-46 46v488l46 46z" />
    <glyph glyph-name="M" unicode="M" horiz-adv-x="892" 
d="M792 1184v-488l-46 -46l-46 46v488l46 46zM192 584v-488l-46 -46l-46 46v488l46 46zM192 1184v-488l-46 -46l-46 46v488l46 46zM792 584v-488l-46 -46l-46 46v488l46 46zM283 1196l162 -389l-12 -78l-68 35l-162 395l12 72zM669 1230l24 -70l-160 -396l-60 -34l-24 76
l160 390z" />
    <glyph glyph-name="N" unicode="N" horiz-adv-x="892" 
d="M792 1174v-488l-46 -46l-46 46v488l46 46zM192 574v-488l-46 -46l-46 46v488l46 46zM192 1174v-488l-46 -46l-46 46v488l46 46zM792 574v-488l-46 -46l-46 46v488l46 46zM283 1146l162 -389l-12 -78l-68 35l-162 395l12 72zM515 636l162 -389l-12 -78l-68 35l-162 395
l12 72z" />
    <glyph glyph-name="O" unicode="O" horiz-adv-x="892" 
d="M686 1288l48 -48l-48 -48h-484l-48 48l48 48h484zM792 1184v-488l-46 -46l-46 46v488l46 46zM192 584v-488l-46 -46l-46 46v488l46 46zM192 1184v-488l-46 -46l-46 46v488l46 46zM792 584v-488l-46 -46l-46 46v488l46 46zM689 88l48 -48l-48 -48h-484l-48 48l48 48h484z
" />
    <glyph glyph-name="P" unicode="P" horiz-adv-x="892" 
d="M686 1288l48 -48l-48 -48h-484l-48 48l48 48h484zM792 1184v-488l-46 -46l-46 46v488l46 46zM192 584v-488l-46 -46l-46 46v488l46 46zM192 1184v-488l-46 -46l-46 46v488l46 46zM689 682l48 -48l-48 -48h-484l-48 48l48 48h484z" />
    <glyph glyph-name="Q" unicode="Q" horiz-adv-x="1103" 
d="M686 1288l48 -48l-48 -48h-484l-48 48l48 48h484zM792 1184v-488l-46 -46l-46 46v488l46 46zM192 584v-488l-46 -46l-46 46v488l46 46zM192 1184v-488l-46 -46l-46 46v488l46 46zM792 584v-488l-46 -46l-46 46v488l46 46zM689 88l48 -48l-48 -48h-484l-48 48l48 48h484z
M557 426l124 -118v-78h-68l-124 124v72h68zM879 228l124 -118v-78h-68l-124 124v72h68z" />
    <glyph glyph-name="R" unicode="R" horiz-adv-x="977" 
d="M686 1278l48 -48l-48 -48h-484l-48 48l48 48h484zM792 1174v-488l-46 -46l-46 46v488l46 46zM192 574v-488l-46 -46l-46 46v488l46 46zM192 1174v-488l-46 -46l-46 46v488l46 46zM689 672l48 -48l-48 -48h-484l-48 48l48 48h484zM715 536l162 -389l-12 -78l-68 35
l-162 395l12 72z" />
    <glyph glyph-name="S" unicode="S" horiz-adv-x="892" 
d="M686 1288l48 -48l-48 -48h-484l-48 48l48 48h484zM192 1184v-488l-46 -46l-46 46v488l46 46zM792 584v-488l-46 -46l-46 46v488l46 46zM689 88l48 -48l-48 -48h-484l-48 48l48 48h484zM689 692l48 -48l-48 -48h-484l-48 48l48 48h484zM193 184v-88l-46 -46l-46 46v88
l46 46zM792 1184v-88l-46 -46l-46 46v88l46 46z" />
    <glyph glyph-name="T" unicode="T" horiz-adv-x="1026" 
d="M561 589v-488l-46 -46l-46 46v488l46 46zM561 1189v-488l-46 -46l-46 46v488l46 46zM878 1293l48 -48l-48 -48h-284l-48 48l48 48h284zM432 1283l48 -48l-48 -48h-284l-48 48l48 48h284z" />
    <glyph glyph-name="U" unicode="U" horiz-adv-x="892" 
d="M792 1184v-488l-46 -46l-46 46v488l46 46zM192 584v-488l-46 -46l-46 46v488l46 46zM192 1184v-488l-46 -46l-46 46v488l46 46zM792 584v-488l-46 -46l-46 46v488l46 46zM689 88l48 -48l-48 -48h-484l-48 48l48 48h484z" />
    <glyph glyph-name="V" unicode="V" horiz-adv-x="1128" 
d="M180 1076l163 -389l-12 -78l-69 35l-162 395l12 72zM400 566l163 -389l-12 -78l-69 35l-162 395l12 72zM804 600l24 -70l-159 -396l-61 -34l-23 76l159 390zM1004 1110l24 -70l-159 -396l-61 -34l-23 76l159 390z" />
    <glyph glyph-name="W" unicode="W" horiz-adv-x="892" 
d="M792 1184v-488l-46 -46l-46 46v488l46 46zM192 584v-488l-46 -46l-46 46v488l46 46zM192 1184v-488l-46 -46l-46 46v488l46 46zM792 584v-488l-46 -46l-46 46v488l46 46zM530 566l162 -389l-12 -78l-68 35l-162 395l12 72zM419 600l24 -70l-160 -396l-60 -34l-24 76
l160 390z" />
    <glyph glyph-name="X" unicode="X" horiz-adv-x="694" 
d="M431 556l162 -389l-12 -78l-69 35l-162 395l12 72zM320 590l23 -70l-159 -396l-61 -34l-23 76l159 390zM182 1116l162 -389l-12 -78l-69 35l-162 395l12 72zM571 1150l23 -70l-159 -396l-61 -34l-23 76l159 390z" />
    <glyph glyph-name="Y" unicode="Y" horiz-adv-x="729" 
d="M411 569v-488l-46 -46l-46 46v488l46 46zM180 1143l163 -389l-12 -78l-69 35l-162 395l12 72zM605 1180l24 -70l-159 -396l-61 -34l-23 76l159 390z" />
    <glyph glyph-name="Z" unicode="Z" horiz-adv-x="873" 
d="M675 1288l48 -48l-48 -48h-483l-48 48l48 48h483zM678 88l48 -48l-48 -48h-483l-48 48l48 48h483zM320 550l23 -70l-159 -396l-61 -34l-23 76l159 390zM750 1230l23 -70l-159 -396l-61 -34l-23 76l159 390zM543 725v-72l-125 -121h-67v79l124 114h68z" />
    <glyph glyph-name="bracketleft" unicode="[" horiz-adv-x="487" 
d="M192 584v-488l-46 -46l-46 46v488l46 46zM192 1184v-488l-46 -46l-46 46v488l46 46zM339 1298l48 -48l-48 -48h-134l-48 48l48 48h134zM339 88l48 -48l-48 -48h-134l-48 48l48 48h134z" />
    <glyph glyph-name="backslash" unicode="\" horiz-adv-x="873" 
d="M180 1366l163 -389l-12 -78l-69 35l-162 395l12 72zM390 856l163 -389l-12 -78l-69 35l-162 395l12 72zM610 346l163 -389l-12 -78l-69 35l-162 395l12 72z" />
    <glyph glyph-name="bracketright" unicode="]" horiz-adv-x="485" 
d="M385 1194v-488l-46 -46l-46 46v488l46 46zM385 594v-488l-46 -46l-46 46v488l46 46zM282 1298l48 -48l-48 -48h-134l-48 48l48 48h134zM292 88l48 -48l-48 -48h-134l-48 48l48 48h134z" />
    <glyph glyph-name="asciicircum" unicode="^" horiz-adv-x="712" 
d="M320 1490l23 -70l-159 -396l-61 -34l-23 76l159 390zM450 1456l162 -389l-12 -78l-69 35l-162 395l12 72z" />
    <glyph glyph-name="underscore" unicode="_" horiz-adv-x="1379" 
d="M632 -92l48 -48l-48 -48h-484l-48 48l48 48h484zM1231 -92l48 -48l-48 -48h-484l-48 48l48 48h484z" />
    <glyph glyph-name="grave" unicode="`" horiz-adv-x="492" 
d="M168 1448l224 -218v-78h-68l-224 224v72h68z" />
    <glyph glyph-name="a" unicode="a" horiz-adv-x="881" 
d="M781 584v-488l-46 -46l-46 46v488l46 46zM678 88l48 -48l-48 -48h-484l-48 48l48 48h484zM678 688l48 -48l-48 -48h-484l-48 48l48 48h484zM192 254v-148l-46 -46l-46 46v148l46 46zM487 351l48 -48l-48 -48h-284l-48 48l48 48h284zM644 351l43 -48l-43 -48h-56l-43 48
l43 48h56z" />
    <glyph glyph-name="b" unicode="b" horiz-adv-x="892" 
d="M192 584v-488l-46 -46l-46 46v488l46 46zM192 1184v-488l-46 -46l-46 46v488l46 46zM792 584v-488l-46 -46l-46 46v488l46 46zM689 88l48 -48l-48 -48h-484l-48 48l48 48h484zM689 683l48 -48l-48 -48h-484l-48 48l48 48h484z" />
    <glyph glyph-name="c" unicode="c" horiz-adv-x="837" 
d="M192 584v-488l-46 -46l-46 46v488l46 46zM689 88l48 -48l-48 -48h-484l-48 48l48 48h484zM689 682l48 -48l-48 -48h-484l-48 48l48 48h484z" />
    <glyph glyph-name="d" unicode="d" horiz-adv-x="892" 
d="M792 1184v-488l-46 -46l-46 46v488l46 46zM192 584v-488l-46 -46l-46 46v488l46 46zM792 584v-488l-46 -46l-46 46v488l46 46zM689 88l48 -48l-48 -48h-484l-48 48l48 48h484zM689 683l48 -48l-48 -48h-484l-48 48l48 48h484z" />
    <glyph glyph-name="e" unicode="e" horiz-adv-x="903" 
d="M192 584v-488l-46 -46l-46 46v488l46 46zM689 88l48 -48l-48 -48h-484l-48 48l48 48h484zM689 688l48 -48l-48 -48h-484l-48 48l48 48h484zM803 584v-148l-46 -46l-46 46v148l46 46zM699 390l48 -48l-48 -48h-284l-48 48l48 48h284zM309 400l48 -48l-48 -48h-64l-48 48
l48 48h64z" />
    <glyph glyph-name="f" unicode="f" horiz-adv-x="840" 
d="M385 584v-488l-46 -46l-46 46v488l46 46zM385 1184v-488l-46 -46l-46 46v488l46 46zM542 688l48 -48l-48 -48h-134l-48 48l48 48h134zM282 688l48 -48l-48 -48h-134l-48 48l48 48h134zM692 1288l48 -48l-48 -48h-284l-48 48l48 48h284z" />
    <glyph glyph-name="g" unicode="g" horiz-adv-x="893" 
d="M192 584v-488l-46 -46l-46 46v488l46 46zM792 584v-488l-46 -46l-46 46v488l46 46zM689 88l48 -48l-48 -48h-484l-48 48l48 48h484zM689 688l48 -48l-48 -48h-484l-48 48l48 48h484zM793 -11v-288l-46 -46l-46 46v288l46 46zM689 -302l48 -48l-48 -48h-484l-48 48l48 48
h484z" />
    <glyph glyph-name="h" unicode="h" horiz-adv-x="892" 
d="M192 584v-488l-46 -46l-46 46v488l46 46zM192 1184v-488l-46 -46l-46 46v488l46 46zM792 584v-488l-46 -46l-46 46v488l46 46zM689 688l48 -48l-48 -48h-484l-48 48l48 48h484z" />
    <glyph glyph-name="i" unicode="i" horiz-adv-x="293" 
d="M192 594v-488l-46 -46l-46 46v488l46 46zM193 764v-68l-46 -46l-46 46v68l46 46z" />
    <glyph glyph-name="j" unicode="j" horiz-adv-x="682" 
d="M581 554v-488l-46 -46l-46 46v488l46 46zM478 -332l48 -48l-48 -48h-284l-48 48l48 48h284zM192 -256v-68l-46 -46l-46 46v68l46 46zM582 731v-68l-46 -46l-46 46v68l46 46zM582 -26v-288l-46 -46l-46 46v288l46 46z" />
    <glyph glyph-name="k" unicode="k" horiz-adv-x="803" 
d="M192 584v-488l-46 -46l-46 46v488l46 46zM192 1184v-488l-46 -46l-46 46v488l46 46zM279 618l424 -418v-78h-68l-424 424v72h68zM653 838v-72l-224 -221h-68v79l224 214h68z" />
    <glyph glyph-name="l" unicode="l" horiz-adv-x="292" 
d="M192 584v-488l-46 -46l-46 46v488l46 46zM192 1184v-488l-46 -46l-46 46v488l46 46z" />
    <glyph glyph-name="m" unicode="m" horiz-adv-x="1153" 
d="M623 574v-488l-46 -46l-46 46v488l46 46zM192 564v-488l-46 -46l-46 46v488l46 46zM1053 564v-488l-46 -46l-46 46v488l46 46zM499 668l48 -48l-48 -48h-284l-48 48l48 48h284zM942 668l48 -48l-48 -48h-284l-48 48l48 48h284z" />
    <glyph glyph-name="n" unicode="n" horiz-adv-x="892" 
d="M192 584v-488l-46 -46l-46 46v488l46 46zM792 584v-488l-46 -46l-46 46v488l46 46zM689 698l48 -48l-48 -48h-484l-48 48l48 48h484z" />
    <glyph glyph-name="o" unicode="o" horiz-adv-x="892" 
d="M192 584v-488l-46 -46l-46 46v488l46 46zM792 584v-488l-46 -46l-46 46v488l46 46zM689 88l48 -48l-48 -48h-484l-48 48l48 48h484zM689 688l48 -48l-48 -48h-484l-48 48l48 48h484z" />
    <glyph glyph-name="p" unicode="p" horiz-adv-x="892" 
d="M192 584v-488l-46 -46l-46 46v488l46 46zM792 584v-488l-46 -46l-46 46v488l46 46zM689 88l48 -48l-48 -48h-484l-48 48l48 48h484zM689 688l48 -48l-48 -48h-484l-48 48l48 48h484zM203 -16v-288l-46 -46l-46 46v288l46 46z" />
    <glyph glyph-name="q" unicode="q" horiz-adv-x="1083" 
d="M192 584v-488l-46 -46l-46 46v488l46 46zM792 584v-488l-46 -46l-46 46v488l46 46zM689 88l48 -48l-48 -48h-484l-48 48l48 48h484zM689 688l48 -48l-48 -48h-484l-48 48l48 48h484zM793 -16v-288l-46 -46l-46 46v288l46 46zM993 -162v-72l-124 -121h-68v79l124 114h68z
" />
    <glyph glyph-name="r" unicode="r" horiz-adv-x="651" 
d="M192 584v-488l-46 -46l-46 46v488l46 46zM503 688l48 -48l-48 -48h-284l-48 48l48 48h284z" />
    <glyph glyph-name="s" unicode="s" horiz-adv-x="672" 
d="M582 374v-288l-46 -46l-46 46v288l46 46zM478 88l48 -48l-48 -48h-284l-48 48l48 48h284zM478 468l48 -48l-48 -48h-284l-48 48l48 48h284zM192 764v-288l-46 -46l-46 46v288l46 46zM488 868l48 -48l-48 -48h-284l-48 48l48 48h284z" />
    <glyph glyph-name="t" unicode="t" horiz-adv-x="690" 
d="M385 584v-488l-46 -46l-46 46v488l46 46zM385 1184v-488l-46 -46l-46 46v488l46 46zM542 688l48 -48l-48 -48h-134l-48 48l48 48h134zM282 688l48 -48l-48 -48h-134l-48 48l48 48h134z" />
    <glyph glyph-name="u" unicode="u" horiz-adv-x="723" 
d="M192 584v-488l-46 -46l-46 46v488l46 46zM623 584v-488l-46 -46l-46 46v488l46 46zM509 88l48 -48l-48 -48h-284l-48 48l48 48h284z" />
    <glyph glyph-name="v" unicode="v" horiz-adv-x="726" 
d="M180 506l163 -389l-12 -78l-69 35l-162 395l12 72zM602 540l24 -70l-159 -396l-61 -34l-23 76l159 390z" />
    <glyph glyph-name="w" unicode="w" horiz-adv-x="892" 
d="M493 554v-488l-46 -46l-46 46v488l46 46zM192 554v-488l-46 -46l-46 46v488l46 46zM792 554v-488l-46 -46l-46 46v488l46 46zM359 78l48 -48l-48 -48h-134l-48 48l48 48h134zM669 78l48 -48l-48 -48h-134l-48 48l48 48h134z" />
    <glyph glyph-name="x" unicode="x" horiz-adv-x="812" 
d="M712 598v-72l-224 -221h-68v79l224 214h68zM168 598l224 -218v-78h-68l-224 224v72h68zM488 278l224 -218v-78h-68l-224 224v72h68zM392 275v-72l-224 -221h-68v79l224 214h68z" />
    <glyph glyph-name="y" unicode="y" horiz-adv-x="723" 
d="M385 10l24 -70l-159 -396l-61 -34l-23 76l159 390zM599 520l24 -70l-159 -396l-61 -34l-23 76l159 390zM180 476l163 -389l-12 -78l-69 35l-162 395l12 72z" />
    <glyph glyph-name="z" unicode="z" horiz-adv-x="780" 
d="M632 688l48 -48l-48 -48h-484l-48 48l48 48h484zM632 88l48 -48l-48 -48h-484l-48 48l48 48h484zM636 585v-72l-424 -421h-68v79l424 414h68z" />
    <glyph glyph-name="braceleft" unicode="{" horiz-adv-x="886" 
d="M738 1608l48 -48l-48 -48h-284l-48 48l48 48h284zM738 -192l48 -48l-48 -48h-284l-48 48l48 48h284zM422 324v-488l-46 -46l-46 46v488l46 46zM422 1514v-488l-46 -46l-46 46v488l46 46zM402 978v-72l-224 -221h-68v79l224 214h68zM168 668l224 -218v-78h-68l-224 224v72
h68z" />
    <glyph glyph-name="bar" unicode="|" horiz-adv-x="292" 
d="M192 1454v-488l-46 -46l-46 46v488l46 46zM192 274v-488l-46 -46l-46 46v488l46 46zM192 864v-488l-46 -46l-46 46v488l46 46z" />
    <glyph glyph-name="braceright" unicode="}" horiz-adv-x="876" 
d="M452 1608l48 -48l-48 -48h-284l-48 48l48 48h284zM432 -192l48 -48l-48 -48h-284l-48 48l48 48h284zM536 314v-488l-46 -46l-46 46v488l46 46zM546 1499v-488l-46 -46l-46 46v488l46 46zM552 958l224 -218v-78h-68l-224 224v72h68zM776 655v-72l-224 -221h-68v79l224 214
h68z" />
    <glyph glyph-name="asciitilde" unicode="~" horiz-adv-x="1152" 
d="M392 885v-72l-224 -221h-68v79l224 214h68zM498 888l224 -218v-78h-68l-224 224v72h68zM1052 885v-72l-224 -221h-68v79l224 214h68z" />
    <glyph glyph-name="exclamdown" unicode="&#xa1;" 
 />
    <glyph glyph-name="cent" unicode="&#xa2;" 
 />
    <glyph glyph-name="sterling" unicode="&#xa3;" horiz-adv-x="1076" 
d="M776 1339q-71 31 -158 31h-2q-98 0 -186 -99q-82 -91 -82 -235q0 -15 1 -30q0 -133 51 -265h362v-76h-329q8 -18 25 -47q36 -65 36 -143q0 -164 -154 -367h388q127 0 186 132l62 -1l-110 -247h-728l1 61q187 238 187 415q0 75 -33 139q-17 32 -29 58h-164v76h131
q-54 133 -54 245q0 230 125.5 353t310.5 123h4q75 0 188.5 -14.5t113.5 -41.5v-169h-69q-6 64 -74 102z" />
    <glyph glyph-name="currency" unicode="&#xa4;" horiz-adv-x="989" 
d="M341 566q40 -39 97 -55q28 -8 57 -8q28 0 57 8q56 16 96 55q39 40 55 96q9 28 9 55t-9 55q-16 56 -55 96q-40 39 -97 55q-29 8 -57 8t-57 -9q-57 -16 -96 -54q-37 -39 -54 -95q-9 -29 -9 -57q0 -26 8 -53q16 -57 55 -97zM219 902l-119 119l90 91l118 -119q42 29 98 45
q44 14 90 14q41 0 84 -12q58 -17 100 -47l119 119l90 -91l-118 -118q27 -41 44 -98q13 -44 13 -88q0 -43 -13 -88q-17 -57 -44 -98l118 -118l-90 -91l-119 119q-42 -31 -98 -47q-44 -12 -87 -12t-86 12q-58 16 -101 47l-118 -119l-90 91l119 118q-28 41 -45 99
q-12 44 -12 87q0 45 13 90q17 56 44 95z" />
    <glyph glyph-name="yen" unicode="&#xa5;" horiz-adv-x="1478" 
d="M639 225l-2 242q0 19 -1.5 34.5t-3.5 24.5l-479 1q-16 0 -25 8.5t-9 25.5t8.5 25t25.5 8h453l-110 156h-341q-19 0 -27.5 7.5t-8.5 24.5q0 18 8 25.5t26 7.5h293q-33 44 -98 142q-130 194 -223 194q-9 0 -17 7.5t-8 17.5q0 23 12.5 33.5t36.5 10.5q27 0 123 -8t164 -8h88
q35 0 45 -8.5t10 -32.5q0 -14 -17.5 -21t-41.5 -7q-6 0 -18.5 2t-18.5 2q-23 0 -34 -8t-11 -19q0 -16 16 -48.5t45 -75.5l158 -221q14 -19 34 -53q39 -67 66 -67q8 0 14 4t13 13l277 396q7 11 11.5 24.5t4.5 21.5q0 14 -8 21t-34 12q-14 2 -40 4q-53 3 -53 33q0 19 10 28.5
t29 9.5q3 0 15 -1q56 -7 108 -7h139q30 0 65 1t37 1q12 0 21.5 -5.5t11.5 -17.5q0 -36 -43 -43q-18 -3 -27 -5q-61 -14 -144 -115l-12 -15l-158 -192h308q16 0 27.5 -7.5t11.5 -23.5q0 -19 -8 -26.5t-27 -7.5h-364q-44 -55 -93 -102.5l-55 -53.5h508q19 0 29 -7t10 -24
q0 -18 -9 -27t-26 -9h-524q0 -3 -1 -22.5t-1 -29.5l2 -215q0 -113 5 -146.5t17 -40.5q29 -16 109 -18t80 -39q0 -16 -12 -26t-29 -10q-2 0 -35.5 4t-64.5 4q-91 0 -208.5 -4t-142.5 -4q-32 0 -43.5 5t-11.5 23q0 16 10 24.5t40 14.5q9 2 25 5q73 16 90 31q15 11 21.5 43
t6.5 99z" />
    <glyph glyph-name="brokenbar" unicode="&#xa6;" horiz-adv-x="292" 
d="M192 314v-488l-46 -46l-46 46v488l46 46zM192 1324v-488l-46 -46l-46 46v488l46 46z" />
    <glyph glyph-name="section" unicode="&#xa7;" horiz-adv-x="886" 
d="M480 324q60 18 102 55q71 64 71 161q-1 1 -1 2h-1q-2 21 -5 32q-21 59 -112 125q-60 30 -129 30q-81 0 -127.5 -44t-46.5 -114q0 -119 249 -247zM402 -338q111 6 182 68q69 61 69 158q0 119 -312 268q-124 65 -178 140t-54 182q0 152 92 243q68 67 147 80l-16 7
q-124 65 -178 140t-54 182q0 152 92 243q83 81 219 88q8 1 17 1h3q66 0 166 -17t100 -49v-202h-63q-5 84 -77 133q-68 46 -146 50h-15q-76 0 -121 -42.5t-45 -111.5q0 -126 283 -261q150 -68 207 -146.5t57 -192.5q0 -175 -104 -288q-47 -40 -85 -58q94 -49 141 -113
q57 -79 57 -192q0 -175 -104 -289q-125 -104 -273 -107h-26q-63 0 -163 17t-100 49v202h63q5 -84 77 -133q66 -44 142 -49z" />
    <glyph glyph-name="dieresis" unicode="&#xa8;" horiz-adv-x="793" 
d="M117 1295l71 72q14 14 28 14q13 0 30 -16l70 -73q12 -17 12 -31q0 -17 -14 -33l-69 -75q-19 -19 -29 -19q-16 0 -29 14l-76 86q-11 15 -11 29q0 17 17 32zM482 1295l71 72q14 14 28 14q13 0 30 -14l70 -75q12 -17 12 -31q0 -17 -14 -32l-69 -76q-19 -19 -29 -19
q-16 0 -29 14l-76 87q-11 14 -11 28q0 17 17 32z" />
    <glyph glyph-name="copyright" unicode="&#xa9;" horiz-adv-x="1686" 
d="M846 1464q146 0 282 -57t241 -162q103 -102 160 -240.5t57 -286.5q0 -149 -57 -285.5t-164 -242.5q-106 -106 -241 -161t-285 -55q-147 0 -280 56t-240 162q-107 105 -163 240t-56 286q0 150 56 286.5t161 240.5q103 105 240.5 162t288.5 57zM367 1191
q-94 -95 -144.5 -217t-50.5 -256q0 -135 50.5 -255.5t146.5 -216.5q97 -95 217 -145.5t254 -50.5q136 0 257.5 50t217.5 144q96 97 147.5 219t51.5 255q0 132 -51.5 256t-143.5 217q-95 95 -218 146t-256 51q-136 0 -260 -51t-218 -146zM871 215q-143 0 -266.5 69
t-188.5 188t-65 247q0 129 66.5 249t190 187t256.5 67q38 0 75.5 -6.5t76.5 -20.5q4 -1 8 -1q15 0 22 30h50l78 -214h-57q-53 95 -129 124q-72 26 -146 26h-15q-84 -8 -163 -70t-120 -173q-32 -89 -32 -181q0 -25 2 -49q11 -119 68.5 -220t146.5 -150q71 -39 164 -41
q122 0 190 54t68 128h65v-108q0 -52 -99 -93.5t-246 -41.5z" />
    <glyph glyph-name="ordfeminine" unicode="&#xaa;" 
 />
    <glyph glyph-name="guillemotleft" unicode="&#xab;" horiz-adv-x="886" 
d="M100 479l351 311h22v-48l-203 -263l203 -263v-48h-22zM413 479l351 311h22v-48l-203 -263l203 -263v-48h-22z" />
    <glyph glyph-name="logicalnot" unicode="&#xac;" horiz-adv-x="1052" 
d="M100 775h852v-503l-5 -5h-106v392h-741v116z" />
    <glyph glyph-name="registered" unicode="&#xae;" horiz-adv-x="1686" 
d="M763 1091v-364l2 -6q22 -54 54 -78q27 -21 53 -21h6q29 4 58 37t44 93q13 49 13 101q0 13 -1 26q-4 66 -27 121.5t-54 73t-61 17.5h-87zM1000 574l76 -109q99 -138 146 -138h40v-66h-358v66h51q24 0 24 14q0 26 -67 108l-73 100q-42 0 -76 34v-143q0 -113 30 -113h59v-66
h-328v66h49q31 0 31 113v538q0 113 -31 113h-49v86h362q65 -1 128 -43q61 -42 94.5 -117t33.5 -156q0 -80 -33 -154.5t-109 -132.5zM846 1464q146 0 282 -57t241 -162q103 -102 160 -240.5t57 -286.5q0 -149 -57 -285.5t-164 -242.5q-106 -106 -241 -161t-285 -55
q-147 0 -280 56t-240 162q-107 105 -163 240t-56 286q0 150 56 286.5t161 240.5q103 105 240.5 162t288.5 57zM367 1191q-94 -95 -144.5 -217t-50.5 -256q0 -135 50.5 -255.5t146.5 -216.5q97 -95 217 -145.5t254 -50.5q136 0 257.5 50t217.5 144q96 97 147.5 219t51.5 255
q0 132 -51.5 256t-143.5 217q-95 95 -218 146t-256 51q-136 0 -260 -51t-218 -146z" />
    <glyph glyph-name="macron" unicode="&#xaf;" 
 />
    <glyph glyph-name="degree" unicode="&#xb0;" horiz-adv-x="768" 
d="M385 1364q-84 0 -143.5 -59t-59.5 -142t59 -141t144 -58t143 58t58 141t-58.5 142t-142.5 59zM385 1450q117 0 200 -83.5t83 -202.5q0 -118 -84 -202t-201 -84q-119 0 -201 83t-82 203t83.5 203t201.5 83z" />
    <glyph glyph-name="plusminus" unicode="&#xb1;" 
 />
    <glyph glyph-name="uni00B2" unicode="&#xb2;" 
 />
    <glyph glyph-name="uni00B3" unicode="&#xb3;" 
 />
    <glyph glyph-name="acute" unicode="&#xb4;" horiz-adv-x="685" 
d="M405 1381q36 36 57 48.5t43 12.5q34 0 57 -22t23 -57q0 -25 -17 -47t-49 -42l-331 -204h-88z" />
    <glyph glyph-name="mu" unicode="&#xb5;" 
 />
    <glyph glyph-name="paragraph" unicode="&#xb6;" horiz-adv-x="1048" 
d="M948 1443v-86h-127v-1365h-94v1365h-154v-1365h-96v738q-170 8 -273.5 104.5t-103.5 251.5q0 161 109.5 259t289.5 98h449z" />
    <glyph glyph-name="periodcentered" unicode="&#xb7;" horiz-adv-x="462" 
d="M118 746l83 84q16 16 32 16q15 0 34 -18l81 -86q14 -19 14 -35q0 -19 -16 -37l-80 -88q-22 -22 -33 -22q-18 0 -33 16l-88 101q-12 16 -12 32q0 19 18 37z" />
    <glyph glyph-name="periodcentered" unicode="&#x2219;" horiz-adv-x="462" 
d="M118 746l83 84q16 16 32 16q15 0 34 -18l81 -86q14 -19 14 -35q0 -19 -16 -37l-80 -88q-22 -22 -33 -22q-18 0 -33 16l-88 101q-12 16 -12 32q0 19 18 37z" />
    <glyph glyph-name="cedilla" unicode="&#xb8;" horiz-adv-x="620" 
d="M100 -278q92 -56 158 -56q65 0 91 20t26 60q0 39 -45 56q-39 16 -100 16q-16 0 -43 -3l53 193h76l-36 -103q22 3 52 4q88 0 138 -42.5t50 -119.5q0 -81 -61 -127t-164 -46q-110 0 -195 34v114z" />
    <glyph glyph-name="uni00B9" unicode="&#xb9;" 
 />
    <glyph glyph-name="ordmasculine" unicode="&#xba;" 
 />
    <glyph glyph-name="guillemotright" unicode="&#xbb;" horiz-adv-x="886" 
d="M122 168h-22v48l202 263l-202 263v48h22l351 -311zM435 168h-22v48l202 263l-202 263v48h22l351 -311z" />
    <glyph glyph-name="onequarter" unicode="&#xbc;" 
 />
    <glyph glyph-name="onehalf" unicode="&#xbd;" 
 />
    <glyph glyph-name="threequarters" unicode="&#xbe;" 
 />
    <glyph glyph-name="questiondown" unicode="&#xbf;" 
 />
    <glyph glyph-name="Agrave" unicode="&#xc0;" 
 />
    <glyph glyph-name="Aacute" unicode="&#xc1;" 
 />
    <glyph glyph-name="Acircumflex" unicode="&#xc2;" 
 />
    <glyph glyph-name="Atilde" unicode="&#xc3;" 
 />
    <glyph glyph-name="Adieresis" unicode="&#xc4;" 
 />
    <glyph glyph-name="Aring" unicode="&#xc5;" 
 />
    <glyph glyph-name="AE" unicode="&#xc6;" 
 />
    <glyph glyph-name="Ccedilla" unicode="&#xc7;" 
 />
    <glyph glyph-name="Egrave" unicode="&#xc8;" 
 />
    <glyph glyph-name="Eacute" unicode="&#xc9;" 
 />
    <glyph glyph-name="Ecircumflex" unicode="&#xca;" 
 />
    <glyph glyph-name="Edieresis" unicode="&#xcb;" 
 />
    <glyph glyph-name="Igrave" unicode="&#xcc;" 
 />
    <glyph glyph-name="Iacute" unicode="&#xcd;" 
 />
    <glyph glyph-name="Icircumflex" unicode="&#xce;" 
 />
    <glyph glyph-name="Idieresis" unicode="&#xcf;" 
 />
    <glyph glyph-name="Eth" unicode="&#xd0;" 
 />
    <glyph glyph-name="Ntilde" unicode="&#xd1;" 
 />
    <glyph glyph-name="Ograve" unicode="&#xd2;" 
 />
    <glyph glyph-name="Oacute" unicode="&#xd3;" 
 />
    <glyph glyph-name="Ocircumflex" unicode="&#xd4;" 
 />
    <glyph glyph-name="Otilde" unicode="&#xd5;" 
 />
    <glyph glyph-name="Odieresis" unicode="&#xd6;" 
 />
    <glyph glyph-name="multiply" unicode="&#xd7;" horiz-adv-x="912" 
d="M456 608l-247 -247l-109 109l247 247l-247 248l109 108l247 -247l248 247l108 -109l-247 -247l247 -247l-109 -109z" />
    <glyph glyph-name="Oslash" unicode="&#xd8;" 
 />
    <glyph glyph-name="Ugrave" unicode="&#xd9;" 
 />
    <glyph glyph-name="Uacute" unicode="&#xda;" 
 />
    <glyph glyph-name="Ucircumflex" unicode="&#xdb;" 
 />
    <glyph glyph-name="Udieresis" unicode="&#xdc;" 
 />
    <glyph glyph-name="Yacute" unicode="&#xdd;" 
 />
    <glyph glyph-name="Thorn" unicode="&#xde;" 
 />
    <glyph glyph-name="germandbls" unicode="&#xdf;" 
 />
    <glyph glyph-name="agrave" unicode="&#xe0;" 
 />
    <glyph glyph-name="aacute" unicode="&#xe1;" 
 />
    <glyph glyph-name="acircumflex" unicode="&#xe2;" 
 />
    <glyph glyph-name="atilde" unicode="&#xe3;" 
 />
    <glyph glyph-name="adieresis" unicode="&#xe4;" 
 />
    <glyph glyph-name="aring" unicode="&#xe5;" 
 />
    <glyph glyph-name="ae" unicode="&#xe6;" 
 />
    <glyph glyph-name="ccedilla" unicode="&#xe7;" 
 />
    <glyph glyph-name="egrave" unicode="&#xe8;" 
 />
    <glyph glyph-name="eacute" unicode="&#xe9;" 
 />
    <glyph glyph-name="ecircumflex" unicode="&#xea;" 
 />
    <glyph glyph-name="edieresis" unicode="&#xeb;" 
 />
    <glyph glyph-name="igrave" unicode="&#xec;" 
 />
    <glyph glyph-name="iacute" unicode="&#xed;" 
 />
    <glyph glyph-name="icircumflex" unicode="&#xee;" 
 />
    <glyph glyph-name="idieresis" unicode="&#xef;" 
 />
    <glyph glyph-name="eth" unicode="&#xf0;" 
 />
    <glyph glyph-name="ntilde" unicode="&#xf1;" 
 />
    <glyph glyph-name="ograve" unicode="&#xf2;" 
 />
    <glyph glyph-name="oacute" unicode="&#xf3;" 
 />
    <glyph glyph-name="ocircumflex" unicode="&#xf4;" 
 />
    <glyph glyph-name="otilde" unicode="&#xf5;" 
 />
    <glyph glyph-name="odieresis" unicode="&#xf6;" 
 />
    <glyph glyph-name="divide" unicode="&#xf7;" horiz-adv-x="1052" 
d="M100 639v156h847l5 -5v-151h-852zM413 414l83 84q16 16 32 16q15 0 34 -18l81 -86q14 -19 14 -35q0 -19 -16 -37l-80 -88q-22 -22 -33 -22q-18 0 -33 16l-88 101q-12 16 -12 32q0 19 18 37zM413 1107l83 84q16 16 32 16q15 0 34 -18l81 -86q14 -19 14 -35q0 -19 -16 -37
l-80 -88q-22 -22 -33 -22q-18 0 -33 16l-88 101q-12 16 -12 32q0 19 18 37z" />
    <glyph glyph-name="oslash" unicode="&#xf8;" 
 />
    <glyph glyph-name="ugrave" unicode="&#xf9;" 
 />
    <glyph glyph-name="uacute" unicode="&#xfa;" 
 />
    <glyph glyph-name="ucircumflex" unicode="&#xfb;" 
 />
    <glyph glyph-name="udieresis" unicode="&#xfc;" 
 />
    <glyph glyph-name="yacute" unicode="&#xfd;" 
 />
    <glyph glyph-name="thorn" unicode="&#xfe;" 
 />
    <glyph glyph-name="ydieresis" unicode="&#xff;" 
 />
    <glyph glyph-name="dotlessi" unicode="&#x131;" horiz-adv-x="667" 
d="M421 223q0 -165 94 -165h52v-66h-454v66h52q94 0 94 165v432q0 69 -105 69h-54v58q224 70 263 184h58v-743z" />
    <glyph glyph-name="circumflex" unicode="&#x2c6;" horiz-adv-x="808" 
d="M100 1071l242 371h124l242 -371h-73l-231 214l-231 -214h-73z" />
    <glyph glyph-name="caron" unicode="&#x2c7;" horiz-adv-x="808" 
d="M100 1442h73l231 -212l231 212h73l-242 -372h-124z" />
    <glyph glyph-name="uni02C9" unicode="&#x2c9;" horiz-adv-x="728" 
d="M100 1187v141h528v-141h-528z" />
    <glyph glyph-name="breve" unicode="&#x2d8;" horiz-adv-x="799" 
d="M100 1357h63q17 -75 73.5 -108t163.5 -33q108 0 163 32.5t73 108.5h63q-22 -146 -98 -216t-201 -70q-123 0 -200 70.5t-100 215.5z" />
    <glyph glyph-name="dotaccent" unicode="&#x2d9;" horiz-adv-x="427" 
d="M117 1295l68 72q7 7 15 10.5t16 3.5q7 0 14.5 -3.5t14.5 -10.5l70 -75q7 -6 9.5 -13.5t2.5 -18.5q-1 -10 -3.5 -17.5t-9.5 -14.5l-71 -76q-13 -12 -18 -15t-9 -3q-11 0 -18.5 3t-12.5 10l-75 87q-5 5 -7.5 12t-2.5 17q0 8 4 16.5t13 15.5z" />
    <glyph glyph-name="ring" unicode="&#x2da;" horiz-adv-x="567" 
d="M188 1257q0 -38 27 -65t67 -27t67 27t27 65q0 36 -27.5 63.5t-66.5 27.5t-66.5 -27.5t-27.5 -63.5zM100 1257q0 79 53 132t129 53q78 0 131.5 -53.5t53.5 -131.5q0 -79 -53.5 -132.5t-131.5 -53.5q-76 0 -129 53.5t-53 132.5z" />
    <glyph glyph-name="ogonek" unicode="&#x2db;" horiz-adv-x="583" 
d="M397 8q-87 -76 -125.5 -132t-38.5 -108q0 -43 25 -69t69 -26q39 0 67 15t50 51l39 -23q-41 -72 -97 -107t-122 -35q-72 0 -118 37.5t-46 96.5q0 79 62 161.5t165 138.5h70z" />
    <glyph glyph-name="tilde" unicode="&#x2dc;" horiz-adv-x="789" 
d="M689 1390q-22 -115 -72 -168t-130 -53h-4q-51 0 -115 23q-65 24 -112 24q-38 0 -57.5 -19t-32.5 -73h-66q21 118 72 172.5t133 54.5q46 -1 114 -24q63 -23 111 -23h4q34 0 54.5 18.5t35.5 67.5h65z" />
    <glyph glyph-name="hungarumlaut" unicode="&#x2dd;" horiz-adv-x="806" 
d="M100 1071l151 286q24 45 47 65t49 20q30 0 52 -22t22 -53q0 -19 -11 -39t-32 -43l-207 -214h-71zM385 1071l151 286q24 45 47 65t49 20q30 0 52 -22t22 -53q0 -19 -11 -39t-32 -43l-207 -214h-71z" />
    <glyph glyph-name="endash" unicode="&#x2013;" horiz-adv-x="1208" 
d="M100 411v136h1008v-136h-1008z" />
    <glyph glyph-name="emdash" unicode="&#x2014;" horiz-adv-x="2260" 
d="M100 411v136h2060v-136h-2060z" />
    <glyph glyph-name="quoteleft" unicode="&#x2018;" horiz-adv-x="464" 
d="M262 1538v-488l-46 -46l-46 46v488l46 46zM420 1038l48 -48l-48 -48h-134l-48 48l48 48h134z" />
    <glyph glyph-name="quoteright" unicode="&#x2019;" horiz-adv-x="464" 
d="M280 1538v-488l-46 -46l-46 46v488l46 46zM167 1649l48 -48l-48 -48h-134l-48 48l48 48h134z" />
    <glyph glyph-name="quotesinglbase" unicode="&#x201a;" horiz-adv-x="464" 
d="M300 234v-488l-46 -46l-46 46v488l46 46zM187 345l48 -48l-48 -48h-134l-48 48l48 48h134z" />
    <glyph glyph-name="quotedblleft" unicode="&#x201c;" horiz-adv-x="817" 
d="M62 1538v-488l-46 -46l-46 46v488l46 46zM220 1038l48 -48l-48 -48h-134l-48 48l48 48h134zM62 1538v-488l-46 -46l-46 46v488l46 46zM220 1038l48 -48l-48 -48h-134l-48 48l48 48h134zM395 1540v-488l-46 -46l-46 46v488l46 46zM553 1040l48 -48l-48 -48h-134l-48 48
l48 48h134z" />
    <glyph glyph-name="quotedblright" unicode="&#x201d;" horiz-adv-x="817" 
d="M300 1489v-488l-46 -46l-46 46v488l46 46zM187 1600l48 -48l-48 -48h-134l-48 48l48 48h134zM647 1489v-488l-46 -46l-46 46v488l46 46zM534 1600l48 -48l-48 -48h-134l-48 48l48 48h134z" />
    <glyph glyph-name="quotedblbase" unicode="&#x201e;" horiz-adv-x="817" 
d="M223 289q49 0 95 -68t46 -157q0 -112 -72.5 -232t-149.5 -120v56q73 43 87 185q0 113 -129 155v52zM576 289q49 0 95 -68t46 -157q0 -112 -72.5 -232t-149.5 -120v56q73 43 87 185q0 113 -129 155v52z" />
    <glyph glyph-name="dagger" unicode="&#x2020;" horiz-adv-x="1085" 
d="M514 1031q-7 85 -52 164q-58 103 -58 134q0 53 38 84.5t100 31.5q58 0 98 -29t40 -78q0 -34 -56 -141q-45 -84 -53 -166q88 7 168 52q102 58 131 58q51 0 83 -38.5t32 -101.5q0 -60 -29.5 -100t-76.5 -40q-33 0 -138 56q-84 45 -171 55q8 -163 111 -265
q-107 -464 -113 -985h-50q-6 521 -115 985q103 102 112 265q-89 -9 -170 -53q-102 -58 -131 -58q-51 0 -82.5 38.5t-31.5 101.5q0 60 29.5 100t75.5 40q33 0 139 -57q84 -45 170 -53z" />
    <glyph glyph-name="daggerdbl" unicode="&#x2021;" horiz-adv-x="1085" 
d="M570 195q87 10 171 55q105 56 138 56q47 0 76.5 -40t29.5 -100q0 -63 -32 -101.5t-83 -38.5q-29 0 -131 58q-80 45 -168 52q8 -82 53 -166q56 -107 56 -141q0 -49 -40 -78t-98 -29q-62 0 -100 31.5t-38 84.5q0 31 58 134q45 79 52 164q-86 -8 -170 -53q-106 -57 -139 -57
q-46 0 -75.5 40t-29.5 100q0 63 31.5 101.5t82.5 38.5q29 0 131 -58q81 -44 170 -53q-9 214 -113 389q104 174 113 388q-89 -9 -170 -53q-102 -58 -131 -58q-51 0 -82.5 38.5t-31.5 101.5q0 60 29.5 100t75.5 40q33 0 139 -57q84 -45 170 -53q-7 85 -52 164q-58 103 -58 134
q0 53 38 84.5t100 31.5q58 0 98 -29t40 -78q0 -34 -56 -141q-45 -84 -53 -166q88 7 168 52q102 58 131 58q51 0 83 -38.5t32 -101.5q0 -60 -29.5 -100t-76.5 -40q-33 0 -138 56q-84 45 -171 55q8 -214 112 -388q-104 -175 -112 -389z" />
    <glyph glyph-name="bullet" unicode="&#x2022;" horiz-adv-x="804" 
d="M100 718q0 127 89 215t214 88q124 0 212.5 -88.5t88.5 -214.5t-89.5 -215.5t-213.5 -89.5q-125 0 -213 89t-88 216z" />
    <glyph glyph-name="ellipsis" unicode="&#x2026;" horiz-adv-x="1828" 
d="M118 173l83 84q16 16 32 16q15 0 34 -18l81 -86q14 -19 14 -35q0 -19 -16 -37l-80 -88q-22 -22 -33 -22q-18 0 -33 16l-88 101q-12 16 -12 32q0 19 18 37zM801 173l83 84q16 16 32 16q15 0 34 -18l81 -86q14 -19 14 -35q0 -19 -16 -37l-80 -88q-22 -22 -33 -22
q-18 0 -33 16l-88 101q-12 16 -12 32q0 19 18 37zM1484 173l83 84q16 16 32 16q15 0 34 -18l81 -86q14 -19 14 -35q0 -19 -16 -37l-80 -88q-22 -22 -33 -22q-18 0 -33 16l-88 101q-12 16 -12 32q0 19 18 37z" />
    <glyph glyph-name="guilsinglleft" unicode="&#x2039;" horiz-adv-x="573" 
d="M100 479l351 311h22v-48l-203 -263l203 -263v-48h-22z" />
    <glyph glyph-name="guilsinglright" unicode="&#x203a;" horiz-adv-x="573" 
d="M122 168h-22v48l202 263l-202 263v48h22l351 -311z" />
    <glyph glyph-name="fraction" unicode="&#x2044;" horiz-adv-x="1250" 
d="M100 -37l950 1477h100l-948 -1477h-102z" />
    <glyph glyph-name="fraction" unicode="&#x2215;" horiz-adv-x="1250" 
d="M100 -37l950 1477h100l-948 -1477h-102z" />
    <glyph glyph-name="franc" unicode="&#x20a3;" horiz-adv-x="1234" 
d="M299 349h-194v76h194v724q0 227 -97 227h-102v66h924l110 -247h-63q-59 182 -186 182l-316 -1q-96 0 -96 -227v-344h355q94 0 94 55v66h62v-358h-62v68q0 54 -94 54h-355v-265h194v-76h-194v-64q0 -227 96 -227h103v-66h-572v66h102q97 0 97 227v64z" />
    <glyph glyph-name="lira" unicode="&#x20a4;" horiz-adv-x="1074" 
d="M775 1344q-71 30 -157 30h-2q-97 0 -185 -99q-83 -92 -83 -239q0 -15 1 -30q0 -106 32 -209h381v-68h-358q10 -25 22 -52h354v-68h-318q32 -58 32 -134q0 -162 -158 -371h392q126 0 185 132l61 -1l-107 -239h-729l1 55q187 238 187 417q0 76 -30 136l-6 5h-172v68h141
l-23 52h-136v68h112q-35 103 -35 189q0 227 125 349.5t315 122.5q76 0 189 -14.5t113 -37.5v-165h-70q-5 63 -74 103z" />
    <glyph glyph-name="peseta" unicode="&#x20a7;" horiz-adv-x="2131" 
d="M473 1376v-652q2 -7 6 -15q40 -100 106 -150q56 -43 113 -43q10 0 19 1q66 8 123.5 73.5t84.5 172.5q22 86 22 177q0 24 -1 46q-7 115 -48.5 215.5t-105.5 141.5q-55 34 -110 34q-10 0 -21 -1h-188zM1543 900h-162v-677q0 -77 32 -113q26 -29 67 -34l-71 191l62 1
q56 -132 114 -175q56 -43 124 -43h7q90 0 148 51q56 50 56 129q0 96 -255 218q-102 53 -146.5 115t-44.5 150q0 125 80 196zM1102 902q-6 -95 -48 -190q-51 -116 -143.5 -180.5t-192.5 -64.5q-101 0 -194 65q-33 22 -51 41v-288q0 -227 96 -227h103v-66h-572v66h102
q97 0 97 227v864q0 227 -97 227h-102v66h624q93 -2 184 -63q92 -63 145 -180q51 -115 52 -233h4q210 0 210 355h62v-355h252q42 19 111 20h2q54 0 136.5 -14t82.5 -41v-167h-54q-4 69 -63 109.5t-130 40.5q-62 0 -98.5 -34.5t-36.5 -90.5q0 -102 231 -212
q123 -56 170 -120.5t47 -158.5q0 -144 -86 -237q-103 -86 -231 -88q-58 0 -106 11q-27 6 -55 6q-18 0 -35 -3q-29 -5 -60 -5q-126 0 -177.5 59t-58.5 174h-2v687h-118z" />
    <glyph glyph-name="Euro" unicode="&#x20ac;" horiz-adv-x="1326" 
d="M288 368q-63 136 -77 277h-111l22 76h85v44h-73l22 76h56q14 140 77 277q81 180 227.5 277t301.5 97q43 0 88 -8q40 -10 83 -30q7 -5 14 -5q16 0 30 45h49l88 -297l-52 -1q-50 136 -136 178q-43 22 -85 33v4q-45 14 -95 14q-17 0 -34 -2q-118 -12 -222.5 -112
t-155.5 -270q-31 -103 -38 -200h708l-21 -76h-690q0 -22 1 -44h677l-21 -76h-649q15 -147 81 -287q73 -154 190 -232q101 -67 214 -68q183 3 252 89q72 88 72 187h60v-151q0 -75 -115 -134q-106 -55 -269 -57q-183 0 -329 99t-225 277z" />
    <glyph glyph-name="afii61352" unicode="&#x2116;" 
 />
    <glyph glyph-name="trademark" unicode="&#x2122;" 
 />
    <glyph glyph-name="partialdiff" unicode="&#x2202;" horiz-adv-x="1072" 
d="M267 537q0 -40 5 -78q14 -120 60.5 -226.5t116.5 -162.5q63 -52 125 -52q6 0 13 1q68 5 124 68.5t78 175.5q16 72 16 147q0 41 -5 84q-14 120 -61.5 228t-117.5 163q-64 49 -125 49h-11q-66 -5 -122.5 -67.5t-79.5 -174.5q-16 -83 -16 -155zM972 477q0 -134 -57.5 -255
t-161.5 -188t-217 -67t-217 67t-161.5 188t-57.5 255q0 133 59 255t163.5 188t213.5 66q110 0 214 -66q30 -18 37 -25q-74 207 -222 347.5t-329 153.5v71q314 0 525 -287.5t211 -702.5z" />
    <glyph glyph-name="Delta" unicode="&#x2206;" horiz-adv-x="1286" 
d="M618 1177l-397 -1046h782zM651 1452l535 -1460h-1086z" />
    <glyph glyph-name="product" unicode="&#x220f;" horiz-adv-x="1631" 
d="M569 1376q-96 0 -96 -227v-1281q0 -227 96 -227h103v-67h-572v67h102q97 0 97 227v1281q0 227 -97 227h-102v66h1431v-66h-103q-96 0 -96 -227v-1281q0 -227 96 -227h103v-66h-572v66h102q97 0 97 227v1281q0 227 -97 227h-492z" />
    <glyph glyph-name="summation" unicode="&#x2211;" horiz-adv-x="1240" 
d="M1054 548l-781 -906h619q126 0 185 182h63l-110 -248h-930v66q66 0 108 51l658 775l-659 854q-41 54 -107 54v66h930l110 -248h-63q-59 182 -185 182h-470z" />
    <glyph glyph-name="minus" unicode="&#x2212;" horiz-adv-x="1052" 
d="M100 639v156h847l5 -5v-151h-852z" />
    <glyph glyph-name="radical" unicode="&#x221a;" horiz-adv-x="1252" 
d="M273 -15l-173 378l85 41l83 -180l725 1463h159v-76h-75z" />
    <glyph glyph-name="infinity" unicode="&#x221e;" horiz-adv-x="1097" 
d="M473 755q-14 97 -70 125q-45 22 -82 22q-12 0 -22 -2q-48 -10 -90.5 -43.5t-63.5 -81.5q-19 -44 -19 -86v-8q2 -45 26 -84t68 -55q29 -11 60 -11q16 0 32 3q46 10 88 42t73 179zM512 687q11 -91 91 -146q67 -47 120 -47q11 0 20 2q61 12 115.5 51t82.5 98q25 52 25 104
v11q-2 57 -34 103.5t-88 65.5q-37 13 -75 13q-22 0 -43 -4q-66 -9 -124.5 -60.5t-89.5 -190.5zM490 852q3 13 16 47q34 91 96.5 141t131.5 50t131.5 -49t97 -138t34.5 -186t-34.5 -186t-97 -138t-131.5 -49t-131.5 50t-96.5 140q-13 35 -16 48q0 -1 -7 -19
q-27 -75 -75.5 -116.5t-102.5 -41.5t-103.5 42.5t-75.5 116.5t-26 153q0 78 26 152.5t75.5 117t103.5 42.5t102.5 -41.5t75.5 -115.5q7 -19 7 -20z" />
    <glyph glyph-name="integral" unicode="&#x222b;" horiz-adv-x="1009" 
d="M166 -289q-66 0 -66 37v167h48q1 -46 32 -66t60 -20h1q77 0 109 156q32 161 40 315l70 734l8 62q27 240 136.5 434t238.5 194q66 0 66 -37v-167h-48q-1 46 -32.5 66t-59.5 20q-67 0 -111 -152t-48 -360l-73 -767q-20 -233 -132 -424.5t-239 -191.5z" />
    <glyph glyph-name="approxequal" unicode="&#x2248;" horiz-adv-x="1041" 
d="M941 1070v-177q-66 -75 -126 -101t-118 -26q-61 0 -178.5 48.5t-175.5 48.5q-50 0 -105.5 -27.5t-137.5 -121.5v177q67 76 127 102.5t116 26.5q65 0 182.5 -49.5t171.5 -49.5q51 0 106.5 27.5t137.5 121.5zM941 722v-177q-66 -75 -126 -101t-118 -26q-61 0 -178.5 48.5
t-175.5 48.5q-50 0 -105.5 -27.5t-137.5 -121.5v177q67 76 127 102.5t116 26.5q65 0 182.5 -49.5t171.5 -49.5q51 0 106.5 27.5t137.5 121.5z" />
    <glyph glyph-name="lessequal" unicode="&#x2264;" horiz-adv-x="1052" 
d="M952 1069l-616 -354l616 -350v-184l-852 488v93l852 491v-184zM100 -7v156h847l5 -5v-151h-852z" />
    <glyph glyph-name="greaterequal" unicode="&#x2265;" horiz-adv-x="1052" 
d="M100 1253l852 -491v-93l-852 -488v184l616 350l-616 354v184zM100 -6v156h847l5 -5v-151h-852z" />
    <glyph glyph-name="uniF001" unicode="&#xf001;" 
 />
    <glyph glyph-name="uniF001" unicode="&#xfb01;" 
 />
    <glyph glyph-name="uniF002" unicode="&#xf002;" 
 />
    <glyph glyph-name="uniF002" unicode="&#xfb02;" 
 />
  </font>
</defs>
</svg>
